<svg version="1.1" id="Layer_1" xmlns="http://www.w3.org/2000/svg" xmlns:xlink="http://www.w3.org/1999/xlink" x="0px" y="0px"
	 width="100%" viewBox="0 0 1300 616" enable-background="new 0 0 1300 616" xml:space="preserve">
<!-- Original logo paths -->
<path fill="#0C0C0C" opacity="1.000000" stroke="none" 
	d="
M262.714294,132.690933 
	C253.637161,131.512970 244.583939,130.072510 235.475037,129.243546 
	C228.691696,128.626205 228.313629,129.266052 228.301590,135.921646 
	C228.274765,150.750519 228.282761,165.579483 228.296356,180.408386 
	C228.303101,187.753265 228.323395,187.750275 235.490784,188.886246 
	C288.738129,197.325470 328.379425,244.900345 321.670898,304.340363 
	C316.395447,351.082611 280.778961,386.883057 234.371521,393.673737 
	C229.803268,394.342194 228.139511,395.870514 228.208939,400.533630 
	C228.439606,416.025574 228.432541,431.525024 228.213074,447.017303 
	C228.145416,451.793335 229.753433,453.864838 234.553192,453.256012 
	C235.703705,453.110077 236.886429,453.240570 238.048248,453.158112 
	C283.471405,449.933807 321.881012,431.863007 351.218658,396.964844 
	C392.407990,347.968689 401.945923,292.264648 379.330933,232.737473 
	C359.033264,179.309921 319.127930,146.463669 262.714294,132.690933 
M255.681793,339.192871 
	C258.669952,336.068970 261.993835,333.200165 264.592224,329.780121 
	C282.563904,306.125153 282.275085,275.136810 264.042542,252.048569 
	C246.393631,229.699417 215.563797,222.702805 188.639694,234.936417 
	C146.465012,254.099533 140.368683,314.116608 177.836716,341.289459 
	C201.935410,358.766510 230.470581,358.165161 255.681793,339.192871 
M541.077271,429.438446 
	C501.520721,389.962708 461.964142,350.486969 421.551971,310.157379 
	C421.551971,358.628113 421.551971,405.747467 421.551971,452.929413 
	C469.107910,452.929413 516.253235,452.929413 564.620361,452.929413 
	C556.380493,444.706421 548.978760,437.319885 541.077271,429.438446 
M421.104126,188.500000 
	C421.104645,212.980301 421.093567,237.460602 421.113464,261.940887 
	C421.118744,268.457458 421.326691,268.675171 427.865051,268.677704 
	C471.330078,268.694489 514.795105,268.690552 558.260132,268.669800 
	C559.848694,268.669037 561.437195,268.423798 562.596802,268.327942 
	C515.490845,221.355270 468.479645,174.477127 421.104523,127.236092 
	C421.104523,147.095642 421.104523,167.297821 421.104126,188.500000 
z"/>
<path fill="#474747" opacity="1.000000" stroke="none" 
	d="
M263.123199,132.787537 
	C319.127930,146.463669 359.033264,179.309921 379.330933,232.737473 
	C401.945923,292.264648 392.407990,347.968689 351.218658,396.964844 
	C321.881012,431.863007 283.471405,449.933807 238.048248,453.158112 
	C236.886429,453.240570 235.703705,453.110077 234.553192,453.256012 
	C229.753433,453.864838 228.145416,451.793335 228.213074,447.017303 
	C228.432541,431.525024 228.439606,416.025574 228.208939,400.533630 
	C228.139511,395.870514 229.803268,394.342194 234.371521,393.673737 
	C280.778961,386.883057 316.395447,351.082611 321.670898,304.340363 
	C328.379425,244.900345 288.738129,197.325470 235.490784,188.886246 
	C228.323395,187.750275 228.303101,187.753265 228.296356,180.408386 
	C228.282761,165.579483 228.274765,150.750519 228.301590,135.921646 
	C228.313629,129.266052 228.691696,128.626205 235.475037,129.243546 
	C244.583939,130.072510 253.637161,131.512970 263.123199,132.787537 
z"/>
<path fill="#969696" opacity="1.000000" stroke="none" 
	d="
M255.414612,339.426514 
	C230.470581,358.165161 201.935410,358.766510 177.836716,341.289459 
	C140.368683,314.116608 146.465012,254.099533 188.639694,234.936417 
	C215.563797,222.702805 246.393631,229.699417 264.042542,252.048569 
	C282.275085,275.136810 282.563904,306.125153 264.592224,329.780121 
	C261.993835,333.200165 258.669952,336.068970 255.414612,339.426514 
z"/>
<path fill="#969696" opacity="1.000000" stroke="none" 
	d="
M541.327148,429.685913 
	C548.978760,437.319885 556.380493,444.706421 564.620361,452.929413 
	C516.253235,452.929413 469.107910,452.929413 421.551971,452.929413 
	C421.551971,405.747467 421.551971,358.628113 421.551971,310.157379 
	C461.964142,350.486969 501.520721,389.962708 541.327148,429.685913 
z"/>
<path fill="#474747" opacity="1.000000" stroke="none" 
	d="
M421.104309,188.000000 
	C421.104523,167.297821 421.104523,147.095642 421.104523,127.236092 
	C468.479645,174.477127 515.490845,221.355270 562.596802,268.327942 
	C561.437195,268.423798 559.848694,268.669037 558.260132,268.669800 
	C514.795105,268.690552 471.330078,268.694489 427.865051,268.677704 
	C421.326691,268.675171 421.118744,268.457458 421.113464,261.940887 
	C421.093567,237.460602 421.104645,212.980301 421.104309,188.000000 
z"/>

<!-- POX Text -->
<text x="640" y="380" font-family="Arial, sans-serif" font-size="240" font-weight="bold" fill="#0C0C0C">POX</text>
</svg>